<?xml version="1.0" standalone="no"?>
<!DOCTYPE svg PUBLIC "-//W3C//DTD SVG 20010904//EN"
 "http://www.w3.org/TR/2001/REC-SVG-20010904/DTD/svg10.dtd">
<svg version="1.0" xmlns="http://www.w3.org/2000/svg"
 width="550.000000pt" height="550.000000pt" viewBox="0 0 550.000000 550.000000"
 preserveAspectRatio="xMidYMid meet">

<g transform="translate(0.000000,550.000000) scale(0.100000,-0.100000)"
fill="#000000" stroke="none">
<path d="M0 2750 l0 -2750 2750 0 2750 0 0 2750 0 2750 -2750 0 -2750 0 0
-2750z m4547 1420 c-3 -38 -14 -86 -23 -106 -33 -70 -103 -123 -181 -137 l-33
-6 0 61 c0 33 5 78 12 99 24 81 121 159 197 159 l34 0 -6 -70z m-2667 -275 c0
-3 -27 -59 -60 -124 l-59 -119 -173 -4 c-167 -3 -175 -4 -228 -31 -76 -39
-153 -117 -187 -191 -25 -54 -28 -72 -28 -161 1 -89 4 -106 29 -158 37 -76
112 -151 183 -185 54 -25 69 -27 230 -30 l172 -4 61 -118 c33 -65 60 -121 60
-124 0 -3 -104 -6 -232 -6 -261 0 -318 9 -428 66 -314 163 -436 525 -284 842
47 98 176 230 274 282 116 61 166 69 433 69 130 1 237 -1 237 -4z m960 2 c0
-2 -25 -57 -55 -123 l-55 -119 -238 -5 c-205 -4 -242 -7 -265 -23 -65 -43 -74
-135 -18 -191 l31 -31 208 -6 c182 -5 214 -8 265 -28 81 -32 166 -112 203
-193 26 -56 29 -74 29 -158 0 -85 -3 -101 -29 -155 -38 -76 -110 -149 -184
-183 l-57 -27 -325 -3 -325 -3 -57 116 c-32 63 -58 120 -58 125 0 6 126 10
350 10 385 0 395 1 425 60 21 40 19 89 -5 128 -33 54 -67 62 -268 62 -128 0
-192 4 -228 15 -112 33 -204 125 -244 245 -68 199 62 431 267 479 35 8 633 15
633 8z m1158 -54 c-18 -32 -49 -87 -69 -123 l-37 -65 -163 -5 c-151 -5 -169
-7 -221 -32 -150 -70 -240 -225 -224 -386 12 -129 100 -254 219 -308 55 -25
73 -29 162 -29 109 0 167 19 215 70 27 28 38 105 21 148 l-11 27 -144 0 -145
0 61 130 61 130 204 0 c112 0 203 -1 203 -3 0 -1 9 -49 20 -107 24 -124 27
-266 7 -332 -45 -145 -165 -247 -352 -299 -109 -30 -256 -24 -365 14 -190 67
-354 242 -405 433 -21 77 -21 250 -1 327 57 212 249 400 463 451 41 10 129 15
296 15 l237 1 -32 -57z m572 -548 l0 -605 -130 0 -130 0 0 528 0 527 128 77
c70 42 128 77 130 78 1 0 2 -272 2 -605z m-2918 74 c32 -12 75 -36 95 -54 l38
-33 -20 -22 c-62 -70 -169 -105 -302 -98 -82 5 -103 10 -166 41 -40 20 -82 46
-92 57 -19 21 -19 21 10 45 41 33 109 66 170 82 70 18 196 10 267 -18z m-654
-1054 c-22 -33 -48 -47 -48 -25 0 28 25 60 47 60 l23 0 -22 -35z m1802 29 c0
-15 -43 -64 -56 -64 -18 0 -18 4 1 40 9 18 24 30 35 30 11 0 20 -3 20 -6z
m-1240 -145 c0 -122 1 -131 20 -136 11 -3 20 -13 20 -23 0 -13 -6 -16 -27 -12
-48 8 -53 25 -53 169 0 126 1 133 20 133 19 0 20 -7 20 -131z m1558 109 c-2
-15 -10 -23 -23 -23 -13 0 -21 8 -23 23 -3 18 1 22 23 22 22 0 26 -4 23 -22z
m1212 -129 l0 -151 -27 5 c-15 3 -37 0 -49 -5 -17 -8 -32 -7 -54 2 -37 15 -56
68 -46 133 9 61 33 81 91 75 l45 -6 0 49 c0 42 3 49 20 49 19 0 20 -7 20 -151z
m-3305 36 c17 -16 25 -35 25 -60 l0 -35 -64 0 c-36 0 -67 -4 -70 -8 -3 -5 2
-18 10 -30 16 -23 53 -29 84 -12 13 7 21 6 30 -5 10 -12 6 -17 -24 -31 -30
-15 -41 -16 -76 -5 -33 10 -45 20 -57 49 -19 47 -12 107 18 138 31 33 91 33
124 -1z m219 12 c16 -12 16 -14 3 -26 -12 -9 -21 -10 -37 -1 -17 9 -26 8 -46
-5 -19 -12 -24 -24 -24 -60 0 -26 6 -50 16 -59 18 -18 55 -21 70 -6 8 8 14 7
23 -3 17 -21 -13 -42 -61 -42 -59 0 -88 38 -88 111 0 45 4 59 25 79 27 28 89
34 119 12z m196 -7 c39 -39 39 -135 1 -174 -32 -32 -96 -28 -127 7 -35 41 -34
128 1 162 31 32 96 34 125 5z m337 -2 c12 -13 24 -40 28 -60 l7 -38 -71 0
c-62 0 -71 -2 -71 -18 0 -10 5 -23 12 -30 15 -15 74 -16 83 -2 5 8 11 7 21 -1
34 -28 -42 -59 -99 -40 -33 11 -49 32 -62 78 -9 33 12 100 38 118 33 23 90 19
114 -7z m352 13 c23 -15 2 -33 -30 -26 -38 9 -69 -2 -69 -25 0 -20 19 -30 55
-30 54 0 83 -37 65 -84 -16 -42 -110 -58 -159 -27 -24 15 5 44 31 30 30 -16
82 -7 86 15 5 23 -14 36 -55 36 -17 0 -39 7 -47 16 -24 23 -20 70 6 88 24 17
94 21 117 7z m111 -62 c0 -81 11 -109 44 -109 36 0 45 19 48 100 3 67 5 75 23
75 19 0 20 -8 23 -102 l3 -103 -43 0 c-24 -1 -56 -1 -72 -2 -50 -1 -66 30 -66
128 0 77 2 84 20 84 18 0 20 -7 20 -71z m350 51 c16 -16 20 -34 20 -89 0 -64
-2 -71 -27 -91 -26 -21 -46 -22 -85 -5 -16 6 -18 1 -18 -44 0 -44 -3 -51 -20
-51 -19 0 -20 7 -20 149 l0 148 65 1 c53 1 70 -3 85 -18z m212 6 c19 -14 38
-57 38 -87 0 -17 -7 -19 -70 -19 -54 0 -70 -3 -70 -14 0 -37 70 -62 96 -36 8
8 14 7 23 -3 18 -22 -14 -42 -66 -42 -60 0 -93 36 -93 101 0 47 20 98 42 107
25 10 83 6 100 -7z m221 7 c29 -8 0 -36 -30 -28 -42 10 -63 -25 -63 -105 0
-63 -2 -70 -20 -70 -19 0 -20 7 -20 104 l0 103 58 1 c31 0 65 -2 75 -5z m87
-98 c0 -98 -1 -105 -20 -105 -19 0 -20 7 -20 105 0 98 1 105 20 105 19 0 20
-7 20 -105z m209 81 c12 -13 24 -40 28 -60 l6 -36 -72 0 c-73 0 -80 -5 -61
-41 12 -21 68 -27 86 -9 8 8 14 7 23 -3 31 -39 -87 -60 -128 -23 -45 41 -45
142 0 179 31 25 91 22 118 -7z m121 -54 c0 -82 9 -102 45 -102 36 0 45 20 45
102 0 71 2 78 20 78 19 0 20 -7 20 -105 l0 -105 -27 1 c-16 1 -42 -2 -58 -6
-23 -5 -37 -1 -58 15 -26 21 -27 25 -27 111 0 82 1 89 20 89 18 0 20 -7 20
-78z m336 67 c11 -18 -16 -40 -36 -29 -24 13 -26 13 -44 -6 -12 -11 -16 -36
-16 -90 0 -67 -2 -74 -20 -74 -19 0 -20 7 -20 104 l0 103 65 1 c35 1 67 -3 71
-9z m169 -14 c17 -16 25 -35 25 -60 l0 -35 -70 0 c-38 0 -70 -3 -70 -8 0 -4 7
-18 16 -30 16 -23 53 -29 84 -12 13 7 21 6 30 -5 9 -11 6 -17 -19 -29 -84 -44
-164 21 -148 122 13 78 99 111 152 57z m590 0 c17 -16 25 -35 25 -60 l0 -35
-70 0 c-38 0 -70 -3 -70 -8 0 -4 7 -18 16 -30 16 -23 53 -29 84 -12 13 7 21 6
30 -5 9 -11 6 -17 -19 -29 -86 -45 -166 24 -147 128 13 71 102 101 151 51z
m-3285 -304 c0 -16 -48 -67 -55 -59 -13 13 16 68 36 68 11 0 19 -4 19 -9z
m398 -33 c3 -13 -3 -18 -22 -18 -20 0 -26 5 -26 21 0 15 5 20 22 17 13 -2 24
-11 26 -20z m502 2 c0 -13 -7 -20 -20 -20 -13 0 -20 7 -20 20 0 13 7 20 20 20
13 0 20 -7 20 -20z m410 6 c0 -8 -9 -18 -20 -21 -13 -4 -20 -15 -20 -31 0 -17
5 -24 20 -24 11 0 20 -7 20 -15 0 -8 -9 -15 -20 -15 -19 0 -20 -7 -20 -90 0
-83 -1 -90 -20 -90 -18 0 -20 7 -20 85 0 69 -3 86 -17 94 -17 10 -17 12 0 25
9 7 17 25 17 39 0 14 7 33 16 41 20 20 64 21 64 2z m1270 -6 c0 -13 -7 -20
-20 -20 -13 0 -20 7 -20 20 0 13 7 20 20 20 13 0 20 -7 20 -20z m-140 -40 c0
-23 4 -30 20 -30 11 0 20 -7 20 -15 0 -8 -9 -15 -20 -15 -18 0 -20 -7 -20 -71
0 -62 2 -71 20 -76 31 -8 25 -33 -8 -33 -43 0 -52 17 -52 97 0 58 -3 74 -17
82 -17 10 -17 12 0 25 9 7 17 25 17 40 0 19 5 26 20 26 16 0 20 -7 20 -30z
m-2640 -147 c0 -81 -4 -122 -15 -143 -24 -47 -100 -61 -143 -27 -20 16 5 39
28 27 31 -17 59 -11 76 15 18 28 12 67 -8 47 -18 -18 -66 -14 -88 8 -25 25
-34 61 -27 111 9 65 28 79 108 77 l69 -1 0 -114z m215 92 c17 -16 25 -35 25
-60 l0 -35 -70 0 c-38 0 -70 -3 -70 -8 0 -4 7 -18 16 -30 16 -24 62 -30 81
-11 13 13 33 4 33 -16 0 -19 -64 -38 -101 -30 -68 15 -92 134 -39 190 32 34
91 34 125 0z m245 5 c17 -17 20 -34 20 -105 0 -78 -2 -85 -20 -85 -17 0 -19 8
-22 76 -3 64 -6 79 -23 89 -13 9 -28 10 -42 4 -21 -8 -23 -15 -23 -89 0 -73
-2 -80 -20 -80 -19 0 -20 7 -20 103 l0 103 65 2 c54 1 69 -2 85 -18z m130 -84
c0 -80 -3 -105 -14 -109 -8 -3 -17 -3 -20 0 -3 4 -6 53 -6 110 0 96 1 103 20
103 19 0 20 -7 20 -104z m224 73 c15 -18 26 -43 26 -60 l0 -29 -70 0 c-54 0
-70 -3 -70 -14 0 -37 70 -62 96 -36 8 8 14 7 23 -3 18 -22 -14 -42 -66 -42
-37 0 -49 5 -70 29 -22 26 -25 37 -21 89 5 71 29 97 88 97 30 0 44 -6 64 -31z
m286 -74 c0 -98 -1 -105 -20 -105 -19 0 -20 7 -20 105 0 98 1 105 20 105 19 0
20 -7 20 -105z m226 91 c16 -12 20 -30 22 -105 4 -87 3 -91 -17 -91 -19 0 -21
5 -21 75 0 68 -2 76 -24 90 -19 13 -29 14 -45 5 -19 -9 -21 -20 -21 -90 0 -79
0 -80 -25 -80 -25 0 -25 0 -25 98 0 54 2 101 4 103 12 12 134 7 152 -5z m373
-10 c47 -50 36 -153 -20 -181 -42 -22 -67 -18 -100 14 -25 26 -29 37 -29 86 0
46 4 60 25 80 33 34 93 34 124 1z m236 15 c8 -14 -23 -33 -44 -26 -13 4 -27
-1 -40 -14 -17 -17 -21 -34 -21 -91 0 -63 -2 -70 -20 -70 -19 0 -20 7 -20 103
l0 103 70 2 c38 0 72 -3 75 -7z m193 -3 c17 -9 25 -9 34 0 7 7 29 12 49 12 59
0 79 -33 79 -130 0 -81 -3 -92 -26 -83 -10 4 -14 24 -14 70 0 91 -25 127 -71
103 -16 -9 -19 -22 -19 -90 0 -79 0 -80 -25 -80 -25 0 -25 1 -25 80 0 69 -3
81 -20 90 -23 12 -54 0 -64 -26 -3 -8 -6 -45 -6 -80 0 -57 -2 -64 -20 -64 -19
0 -20 7 -20 103 l0 104 63 1 c34 1 72 -4 85 -10z m372 -8 c17 -17 20 -33 20
-105 l0 -84 -37 -1 c-21 -1 -53 -2 -71 -2 -40 -2 -64 21 -64 58 0 39 34 64 88
64 48 0 57 15 28 44 -18 19 -38 20 -66 5 -27 -15 -47 3 -28 26 19 23 105 20
130 -5z m280 -85 c0 -98 -1 -105 -20 -105 -19 0 -20 7 -20 105 0 98 1 105 20
105 19 0 20 -7 20 -105z m240 -46 c0 -142 -1 -149 -20 -149 -17 0 -20 7 -20
50 0 50 -6 60 -27 39 -16 -16 -70 -1 -88 24 -9 14 -15 45 -15 84 0 87 16 103
105 101 l65 -1 0 -148z m120 73 c0 -80 9 -102 41 -102 36 0 49 28 49 106 0 67
2 74 20 74 19 0 20 -7 20 -106 l0 -106 -27 5 c-15 3 -36 1 -46 -5 -10 -5 -31
-6 -48 -3 -42 10 -59 49 -59 140 0 73 1 75 25 75 25 0 25 -1 25 -78z m345 53
c17 -16 25 -35 25 -60 l0 -35 -65 0 c-56 0 -65 -3 -65 -18 0 -38 48 -55 90
-32 13 7 21 6 30 -5 9 -11 6 -17 -19 -29 -37 -20 -64 -20 -100 -1 -56 28 -67
131 -20 181 31 33 91 33 124 -1z"/>
<path d="M4223 2199 c-20 -7 -23 -16 -23 -62 0 -60 14 -81 52 -75 17 2 25 12
32 39 17 69 -13 116 -61 98z"/>
<path d="M926 2188 c-21 -29 -12 -38 40 -38 37 0 44 3 44 20 0 20 -27 40 -54
40 -8 0 -22 -10 -30 -22z"/>
<path d="M1350 2190 c-25 -25 -27 -91 -4 -114 20 -21 48 -20 65 1 21 24 16
103 -6 120 -25 17 -31 17 -55 -7z"/>
<path d="M1686 2194 c-30 -29 -20 -44 29 -44 38 0 45 3 45 20 0 18 -26 40 -49
40 -5 0 -17 -7 -25 -16z"/>
<path d="M2502 2194 c-16 -11 -22 -25 -22 -55 0 -22 5 -49 10 -60 12 -21 50
-25 68 -7 18 18 15 103 -4 122 -19 20 -24 20 -52 0z"/>
<path d="M2716 2194 c-31 -30 -20 -44 34 -44 54 0 58 4 34 38 -18 26 -46 28
-68 6z"/>
<path d="M3228 2199 c-10 -5 -18 -19 -18 -29 0 -17 7 -20 44 -20 52 0 61 9 40
38 -16 24 -39 27 -66 11z"/>
<path d="M3846 2188 c-24 -34 -20 -38 34 -38 54 0 65 14 34 44 -22 22 -50 20
-68 -6z"/>
<path d="M4436 2188 c-21 -29 -12 -38 40 -38 48 0 57 15 28 44 -22 22 -50 20
-68 -6z"/>
<path d="M936 1767 c-13 -10 -17 -24 -14 -67 3 -54 4 -55 34 -58 28 -3 33 1
42 28 14 39 5 88 -19 100 -22 12 -22 13 -43 -3z"/>
<path d="M1166 1758 c-24 -34 -20 -38 34 -38 54 0 65 14 34 44 -22 22 -50 20
-68 -6z"/>
<path d="M1766 1764 c-31 -30 -20 -44 34 -44 54 0 58 4 34 38 -18 26 -46 28
-68 6z"/>
<path d="M2662 1764 c-44 -30 -23 -134 27 -134 29 0 41 22 41 77 0 41 -4 54
-19 63 -25 13 -22 13 -49 -6z"/>
<path d="M3444 1675 c-10 -26 4 -45 34 -45 32 0 52 16 52 42 0 14 -8 18 -40
18 -27 0 -43 -5 -46 -15z"/>
<path d="M3956 1764 c-19 -19 -22 -104 -4 -122 18 -18 56 -14 68 7 26 49 4
131 -35 131 -7 0 -21 -7 -29 -16z"/>
<path d="M4436 1758 c-21 -29 -12 -38 40 -38 48 0 57 15 28 44 -22 22 -50 20
-68 -6z"/>
</g>
</svg>
